# xmcd
#
# Track frame offsets: 
#        150
#        24912
#        60864
#        86400
#        110593
#        137489
#        163669
#        192740
#        220105
#        247874
#        276620
#        302653
#
# Disc length: 4418 seconds
#
# Revision: 5
# Processed by: cddbd v1.5.2PL0 Copyright (c) Steve Scherf et al.
# Submitted via: ExactAudioCopy v1.3
#
DISCID=a011400c
DTITLE=Eddie Higgins and Scott Hamilton - My Foolish Heart
DYEAR=2002
DGENRE=Jazz
TTITLE0=My Foolish Heart
TTITLE1=Russian Lullaby
TTITLE2=What Is There To Say
TTITLE3=That Old Black Magic
TTITLE4=Skylark
TTITLE5=Night And Day
TTITLE6=Embraceable You
TTITLE7=Am I Blue
TTITLE8=These Foolish Things
TTITLE9=The More I See You
TTITLE10=The Song Is You
TTITLE11=This Love Of Mine
EXTD=Eddie Higgins (piano]\nScott Hamilton (tenor sax]\nSteve Gilmore 
EXTD=(bass]\nBill Goodwin (drums)
EXTT0=
EXTT1=
EXTT2=
EXTT3=
EXTT4=
EXTT5=
EXTT6=
EXTT7=
EXTT8=
EXTT9=
EXTT10=
EXTT11=
PLAYORDER=
